<svg width="26" height="26" xmlns="http://www.w3.org/2000/svg" xmlns:xlink="http://www.w3.org/1999/xlink" xml:space="preserve" overflow="hidden"><g transform="translate(-446 -319)"><path d="M469.833 332.271C469.831 333.167 469.105 333.893 468.208 333.896L463.062 333.896C462.627 333.904 462.272 334.247 462.25 334.681 462.277 335.169 463.062 336.144 463.062 339.854 463.062 340.752 462.335 341.479 461.438 341.479 460.54 341.479 459.812 340.752 459.812 339.854 459.812 335.737 455.019 333.408 454.938 333.354L454.938 324.688C456.86 324.688 456.996 322.521 460.625 322.521L465.5 322.521C466.396 322.524 467.122 323.249 467.125 324.146 467.131 324.55 466.975 324.941 466.692 325.229L466.854 325.229C467.751 325.232 468.477 325.958 468.479 326.854 468.483 327.28 468.318 327.689 468.019 327.992 468.891 328.181 469.445 329.043 469.255 329.915 469.185 330.237 469.018 330.53 468.777 330.754 469.417 330.982 469.842 331.591 469.833 332.271Z"/><path d="M452.229 334.708 448.167 334.708 448.167 323.333 452.229 323.333C452.827 323.335 453.311 323.819 453.312 324.417L453.312 333.625C453.311 334.223 452.827 334.707 452.229 334.708Z"/></g></svg>